<?xml version="1.0" encoding="UTF-8"?>
<svg xmlns="http://www.w3.org/2000/svg" width="1200" height="620" viewBox="0 0 1200 620">
<rect width="1200" height="620" rx="8" fill="#F8FAFC"/>
<text x="54" y="62" font-family="Arial, sans-serif" font-size="30" font-weight="700" fill="#0F172A">Editable PPT reconstruction benchmark</text>
<text x="54" y="94" font-family="Arial, sans-serif" font-size="15" fill="#475569">Weighted score: fidelity 30%, editability 25%, PowerPoint safety 20%, repeatability 15%, file efficiency 10%</text>
<line x1="390.0" y1="122" x2="390.0" y2="552" stroke="#E2E8F0" stroke-width="1"/>
<text x="390.0" y="578" text-anchor="middle" font-family="Arial, sans-serif" font-size="13" fill="#64748B">0</text>
<line x1="532.0" y1="122" x2="532.0" y2="552" stroke="#E2E8F0" stroke-width="1"/>
<text x="532.0" y="578" text-anchor="middle" font-family="Arial, sans-serif" font-size="13" fill="#64748B">2</text>
<line x1="674.0" y1="122" x2="674.0" y2="552" stroke="#E2E8F0" stroke-width="1"/>
<text x="674.0" y="578" text-anchor="middle" font-family="Arial, sans-serif" font-size="13" fill="#64748B">4</text>
<line x1="816.0" y1="122" x2="816.0" y2="552" stroke="#E2E8F0" stroke-width="1"/>
<text x="816.0" y="578" text-anchor="middle" font-family="Arial, sans-serif" font-size="13" fill="#64748B">6</text>
<line x1="958.0" y1="122" x2="958.0" y2="552" stroke="#E2E8F0" stroke-width="1"/>
<text x="958.0" y="578" text-anchor="middle" font-family="Arial, sans-serif" font-size="13" fill="#64748B">8</text>
<line x1="1100.0" y1="122" x2="1100.0" y2="552" stroke="#E2E8F0" stroke-width="1"/>
<text x="1100.0" y="578" text-anchor="middle" font-family="Arial, sans-serif" font-size="13" fill="#64748B">10</text>
<text x="54" y="167" font-family="Arial, sans-serif" font-size="17" font-weight="500" fill="#0F172A">Layered raster + editable text</text>
<rect x="390" y="146" width="710" height="30" rx="6" fill="#E2E8F0"/>
<rect x="390" y="146" width="454.4" height="30" rx="6" fill="#94A3B8"/>
<text x="834.4" y="167" text-anchor="end" font-family="Arial, sans-serif" font-size="15" font-weight="700" fill="#FFFFFF">6.4</text>
<text x="54" y="245" font-family="Arial, sans-serif" font-size="17" font-weight="500" fill="#0F172A">Componentized shapes + raster icons</text>
<rect x="390" y="224" width="710" height="30" rx="6" fill="#E2E8F0"/>
<rect x="390" y="224" width="525.4" height="30" rx="6" fill="#38BDF8"/>
<text x="905.4" y="245" text-anchor="end" font-family="Arial, sans-serif" font-size="15" font-weight="700" fill="#FFFFFF">7.4</text>
<text x="54" y="323" font-family="Arial, sans-serif" font-size="17" font-weight="500" fill="#0F172A">HTML/DOM to PPTX</text>
<rect x="390" y="302" width="710" height="30" rx="6" fill="#E2E8F0"/>
<rect x="390" y="302" width="482.8" height="30" rx="6" fill="#64748B"/>
<text x="862.8" y="323" text-anchor="end" font-family="Arial, sans-serif" font-size="15" font-weight="700" fill="#FFFFFF">6.8</text>
<text x="54" y="401" font-family="Arial, sans-serif" font-size="17" font-weight="500" fill="#0F172A">Constrained SVG proof of concept</text>
<rect x="390" y="380" width="710" height="30" rx="6" fill="#E2E8F0"/>
<rect x="390" y="380" width="624.8" height="30" rx="6" fill="#2563EB"/>
<text x="1004.8" y="401" text-anchor="end" font-family="Arial, sans-serif" font-size="15" font-weight="700" fill="#FFFFFF">8.8</text>
<text x="54" y="479" font-family="Arial, sans-serif" font-size="17" font-weight="700" fill="#0F172A">Scene-native pipeline</text>
<rect x="390" y="458" width="710" height="30" rx="6" fill="#E2E8F0"/>
<rect x="390" y="458" width="667.4" height="30" rx="6" fill="#0F766E"/>
<text x="1047.4" y="479" text-anchor="end" font-family="Arial, sans-serif" font-size="15" font-weight="700" fill="#FFFFFF">9.4</text>
<text x="54" y="598" font-family="Arial, sans-serif" font-size="12" fill="#64748B">Engineering benchmark, 2026-07-10. Scores combine measured artifacts with documented review criteria.</text>
</svg>
